#!OML:ASF F:\twosubjects\two\Thursday\Session 1\Rory.ASF
:FULLY-SPECIFIED
:DEGREES
321
root 10.6 15.3027 12.2191 34.0116 -96.5055 -40.4923
lowerback 9.59174 -1.54209 -4.08917
upperback -0.233856 -2.74754 -2.91576
thorax -5.58765 -1.30671 -0.357431
lowerneck -9.89436 -3.14895 -3.45874
upperneck 14.3273 -4.99145 6.88068
head 6.23314 -2.15207 2.32938
rclavicle 2.93953e-014 2.46493e-014
rhumerus 69.0557 -52.1675 -29.0203
rradius 73.9313
rwrist -8.84461
rhand -43.764 46.6177
rfingers 7.12502
rthumb -16.594 17.3072
lclavicle 2.93953e-014 2.46493e-014
lhumerus 68.8435 53.0957 25.7538
lradius 71.9223
lwrist 9.39619
lhand -21.9515 33.7775
lfingers 7.12502
lthumb 4.45561 63.7107
rfemur -13.7711 20.4042 -9.01746
rtibia 52.8211
rfoot -31.4827 -14.0371
rtoes -49.6963
lfemur -2.8756 -8.81716 4.59788
ltibia 46.8893
lfoot -31.6955 -2.04615
ltoes -40.9771
322
root 10.6115 15.2644 12.2129 33.3502 -96.4332 -39.993
lowerback 9.55906 -1.59145 -4.08161
upperback -0.148194 -2.80362 -2.88035
thorax -5.47616 -1.33664 -0.319019
lowerneck -10.1717 -3.30803 -3.65894
upperneck 14.6974 -5.20541 6.91612
head 6.4164 -2.25394 2.35107
rclavicle -5.71506e-016 -1.47101e-014
rhumerus 70.2405 -51.8695 -30.5699
rradius 73.4369
rwrist -7.73421
rhand -43.9515 46.9528
rfingers 7.12502
rthumb -16.7745 17.6574
lclavicle -5.71506e-016 -1.47101e-014
lhumerus 69.2599 52.9236 26.5215
lradius 71.7087
lwrist 9.01329
lhand -22.3651 34.3703
lfingers 7.12502
lthumb 4.05625 64.3115
rfemur -13.7636 20.6089 -9.0534
rtibia 53.0175
rfoot -31.4233 -14.385
rtoes -51.5637
lfemur -2.77672 -8.96037 4.80903
ltibia 46.9456
lfoot -32.0855 -2.37212
ltoes -40.9443
323
root 10.6149 15.261 12.2084 32.9765 -96.2953 -39.8606
lowerback 9.57217 -1.62199 -3.98957
upperback -0.0714298 -2.82701 -2.83017
thorax -5.40368 -1.35145 -0.315419
lowerneck -9.9941 -3.45497 -3.5436
upperneck 14.5132 -5.33064 6.44282
head 6.31804 -2.34782 2.17213
rclavicle -1.4884e-014 1.98785e-015
rhumerus 70.6837 -51.6357 -31.1285
rradius 72.3647
rwrist -7.36329
rhand -43.7366 45.9473
rfingers 7.12502
rthumb -16.5676 16.6345
lclavicle -1.4884e-014 1.98785e-015
lhumerus 69.0875 52.6549 26.9757
lradius 71.3684
lwrist 9.06876
lhand -24.1179 34.8539
lfingers 7.12502
lthumb 2.36348 64.8206
rfemur -13.3886 20.532 -8.94202
rtibia 52.8567
rfoot -31.1506 -14.8988
rtoes -52.8908
lfemur -2.44377 -9.21259 4.95012
ltibia 46.6662
lfoot -32.1032 -3.14782
ltoes -39.8756
324
root 10.6112 15.2882 12.2022 32.993 -96.1601 -40.0899
lowerback 9.55223 -1.66563 -4.02361
upperback -0.0500713 -2.87672 -2.70984
thorax -5.36065 -1.37299 -0.165116
lowerneck -9.23534 -3.46578 -3.43815
upperneck 13.6379 -5.22687 5.92874
head 5.88862 -2.34993 2.01406
rclavicle 8.19987e-016 1.59028e-015
rhumerus 70.8604 -51.2385 -31.4615
rradius 71.0404
rwrist -7.52318
rhand -43.0813 44.5186
rfingers 7.12502
rthumb -15.9366 15.1543
lclavicle 8.19987e-016 1.59028e-015
lhumerus 68.0891 52.4334 26.8323
lradius 70.8317
lwrist 9.35821
lhand -22.5958 35.3559
lfingers 7.12502
lthumb 3.83338 65.3012
rfemur -12.8613 20.1879 -8.77021
rtibia 52.3641
rfoot -30.9462 -14.9274
rtoes -53.3707
lfemur -2.00628 -9.42207 4.99084
ltibia 46.0772
lfoot -31.8632 -4.161
ltoes -37.8108
325
root 10.6048 15.3499 12.1995 34.6177 -95.9068 -41.7366
lowerback 9.38631 -1.75604 -3.94925
upperback -0.148098 -2.97837 -2.67819
thorax -5.36964 -1.42242 -0.164087
lowerneck -8.60224 -3.42614 -3.49664
upperneck 13.0917 -5.12508 5.81415
head 5.60232 -2.32757 2.00732
rclavicle 5.2181e-015 2.38542e-015
rhumerus 70.2717 -50.8234 -31.4766
rradius 69.9257
rwrist -8.1626
rhand -42.3985 43.5134
rfingers 7.12502
rthumb -15.279 14.0978
lclavicle 5.2181e-015 2.38542e-015
lhumerus 66.6579 52.0904 26.2653
lradius 70.044
lwrist 9.90082
lhand -22.1343 34.9039
lfingers 7.12502
lthumb 4.27907 64.8406
rfemur -12.2979 19.3564 -8.69031
rtibia 51.5853
rfoot -31.0695 -13.4745
rtoes -52.3649
lfemur -1.73558 -9.80992 4.89234
ltibia 45.2259
lfoot -31.2097 -4.88329
ltoes -36.1073
326
root 10.5958 15.4431 12.1965 35.8166 -95.646 -42.9865
lowerback 9.20158 -1.81789 -3.65538
upperback -0.237354 -3.02308 -2.73032
thorax -5.37584 -1.45189 -0.381503
lowerneck -8.49842 -3.39644 -3.78896
upperneck 13.3069 -5.09653 6.02631
head 5.66274 -2.31577 2.12513
rclavicle 9.11925e-015 -3.97569e-016
rhumerus 68.9027 -50.6073 -30.8988
rradius 68.7939
rwrist -8.91491
rhand -42.0566 42.6524
rfingers 7.12502
rthumb -14.9497 13.212
lclavicle 9.11925e-015 -3.97569e-016
lhumerus 64.6919 51.7074 25.1624
lradius 69.1876
lwrist 10.7078
lhand -21.6835 35.4735
lfingers 7.12502
lthumb 4.71443 65.401
rfemur -11.573 18.5831 -8.47932
rtibia 50.5473
rfoot -30.6083 -12.1458
rtoes -51.2546
lfemur -1.28699 -10.178 4.78062
ltibia 44.1338
lfoot -30.2361 -4.66136
ltoes -36.7358
327
root 10.5869 15.5608 12.1925 34.9848 -95.481 -42.1576
lowerback 8.96782 -1.7417 -3.2617
upperback -0.310213 -2.86952 -2.76489
thorax -5.34343 -1.38689 -0.664696
lowerneck -8.78109 -3.53598 -4.10211
upperneck 13.8514 -5.29005 6.13846
head 5.90283 -2.40958 2.19052
rclavicle -9.98893e-015 1.35174e-014
rhumerus 66.6634 -50.6202 -29.4332
rradius 67.46
rwrist -9.31574
rhand -41.7127 41.2208
rfingers 7.12502
rthumb -14.6184 11.7561
lclavicle -9.98893e-015 1.35174e-014
lhumerus 62.3631 51.1729 23.9155
lradius 68.3844
lwrist 11.344
lhand -21.088 36.1535
lfingers 7.12502
lthumb 5.28936 66.0674
rfemur -10.8639 18.2538 -8.09034
rtibia 49.2575
rfoot -29.4532 -11.4869
rtoes -50.3645
lfemur -0.730997 -10.1593 4.77308
ltibia 42.8407
lfoot -28.8598 -4.32107
ltoes -37.6439
328
root 10.5765 15.7071 12.1861 35.1509 -95.3594 -42.1926
lowerback 8.63909 -1.64727 -3.19374
upperback -0.448781 -2.71876 -2.71046
thorax -5.30479 -1.31211 -0.674356
lowerneck -8.99928 -3.74301 -4.23242
upperneck 14.2646 -5.55224 5.99328
head 6.08419 -2.54733 2.13923
rclavicle -1.70955e-014 4.37326e-015
rhumerus 63.9368 -50.5374 -27.6723
rradius 66.3738
rwrist -9.58362
rhand -41.294 39.1764
rfingers 7.12502
rthumb -14.2149 9.68285
lclavicle -1.70955e-014 4.37326e-015
lhumerus 59.4256 50.517 22.1907
lradius 67.4955
lwrist 11.8459
lhand -20.6839 36.5639
lfingers 7.12502
lthumb 5.67951 66.4678
rfemur -10.1525 17.9681 -7.80728
rtibia 47.7365
rfoot -28.1839 -10.4537
rtoes -48.6532
lfemur -0.238345 -10.1943 4.57517
ltibia 41.3669
lfoot -27.1107 -3.91076
ltoes -37.8413
329
root 10.5634 15.888 12.1759 37.1797 -95.4092 -44.1057
lowerback 8.28264 -1.61759 -3.53423
upperback -0.596244 -2.69256 -2.60689
thorax -5.23795 -1.28718 -0.388962
lowerneck -9.05017 -3.79531 -4.31818
upperneck 14.5731 -5.61542 5.88615
head 6.19299 -2.58872 2.11211
rclavicle 3.85145e-014 1.70955e-014
rhumerus 61.322 -50.2503 -26.1212
rradius 65.3954
rwrist -10.106
rhand -41.0272 37.4535
rfingers 7.12502
rthumb -13.9579 7.94206
lclavicle 3.85145e-014 1.70955e-014
lhumerus 55.1495 49.8805 19.2005
lradius 66.7457
lwrist 12.5255
lhand -20.2643 37.0782
lfingers 7.12502
lthumb 6.08466 66.9708
rfemur -9.37061 17.7507 -7.75895
rtibia 46.0427
rfoot -26.7864 -9.08936
rtoes -46.7776
lfemur 0.437859 -10.5714 3.96125
ltibia 39.7142
lfoot -25.404 -3.29123
ltoes -37.4165
330
root 10.5523 16.1008 12.1707 41.0725 -95.4981 -47.6648
lowerback 7.71995 -1.6019 -3.80189
upperback -0.759754 -2.674 -2.63002
thorax -5.081 -1.27259 -0.281486
lowerneck -9.21192 -3.83038 -4.42213
upperneck 14.9174 -5.67557 5.93011
head 6.33739 -2.61642 2.13412
rclavicle 2.66123e-014 9.14409e-015
rhumerus 58.1777 -50.0457 -23.9954
rradius 63.9609
rwrist -10.7347
rhand -40.8243 36.7923
rfingers 7.12502
rthumb -13.7623 7.26742
lclavicle 2.66123e-014 9.14409e-015
lhumerus 50.8005 48.9694 16.1844
lradius 65.9973
lwrist 12.9275
lhand -19.9532 37.3859
lfingers 7.12502
lthumb 6.38502 67.2697
rfemur -8.72589 17.8245 -7.87422
rtibia 44.2425
rfoot -25.1513 -7.60239
rtoes -44.5107
lfemur 0.888755 -11.0823 3.17204
ltibia 37.9002
lfoot -23.2759 -2.51141
ltoes -37.9919
331
root 10.5406 16.3351 12.1648 43.0052 -95.3769 -49.1476
lowerback 7.10009 -1.63512 -3.73835
upperback -0.978165 -2.68714 -2.66546
thorax -4.96315 -1.28178 -0.369006
lowerneck -9.39909 -3.84532 -4.34192
upperneck 15.2703 -5.71178 5.82882
head 6.47877 -2.63279 2.0812
rclavicle -1.96548e-014 -3.37934e-014
rhumerus 54.5834 -49.7033 -21.6616
rradius 62.3598
rwrist -10.8538
rhand -40.6386 36.7946
rfingers 7.12502
rthumb -13.5834 7.25774
lclavicle -1.96548e-014 -3.37934e-014
lhumerus 46.4485 47.6958 13.1941
lradius 65.1819
lwrist 12.7324
lhand -19.9838 37.9145
lfingers 7.12502
lthumb 6.35543 67.7991
rfemur -8.08724 18.2235 -7.60636
rtibia 42.3728
rfoot -23.1372 -6.41873
rtoes -42.6197
lfemur 1.20691 -11.59 2.79008
ltibia 35.9742
lfoot -20.1746 -2.71784
ltoes -37.3779
332
root 10.5292 16.5784 12.149 43.0441 -95.2034 -48.8782
lowerback 6.621 -1.71826 -3.82634
upperback -1.1919 -2.77645 -2.52393
thorax -4.9023 -1.3194 -0.176386
lowerneck -9.44775 -3.76835 -4.34095
upperneck 15.5356 -5.6086 5.72891
head 6.56307 -2.58972 2.05694
rclavicle 3.01159e-014 -1.19271e-015
rhumerus 51.2813 -49.175 -19.7632
rradius 61.1665
rwrist -10.2944
rhand -40.5814 36.2618
rfingers 7.12502
rthumb -13.5282 6.72125
lclavicle 3.01159e-014 -1.19271e-015
lhumerus 41.2098 46.1258 9.5431
lradius 64.643
lwrist 12.6499
lhand -19.9383 38.4989
lfingers 7.12502
lthumb 6.39934 68.3823
rfemur -7.33087 18.7986 -7.06021
rtibia 40.4456
rfoot -20.5993 -5.81027
rtoes -41.9052
lfemur 1.73521 -12.1506 2.6157
ltibia 34.0111
lfoot -16.8393 -3.29294
ltoes -34.6548
